<?xml version="1.0" encoding="iso-8859-1"?>
<!-- Generator: Adobe Illustrator 19.0.0, SVG Export Plug-In . SVG Version: 6.00 Build 0)  -->
<svg version="1.1" id="Layer_1" xmlns="http://www.w3.org/2000/svg" xmlns:xlink="http://www.w3.org/1999/xlink" x="0px" y="0px"
	 viewBox="0 0 448.133 448.133" style="enable-background:new 0 0 448.133 448.133;" xml:space="preserve">
<g>
	<path style="fill:#F8A805;" d="M224.067,158.11c-36.117,0-65.5,29.383-65.5,65.5s29.383,65.5,65.5,65.5s65.5-29.383,65.5-65.5
		S260.184,158.11,224.067,158.11z M252.567,223.61c0,15.715-12.785,28.5-28.5,28.5s-28.5-12.785-28.5-28.5s12.785-28.5,28.5-28.5
		S252.567,207.895,252.567,223.61z"/>
	<path style="fill:#3E81C8;" d="M224.067,58.61c-90.981,0-165,74.019-165,165s74.019,165,165,165s165-74.019,165-165
		S315.048,58.61,224.067,58.61z M224.067,90.61c73.336,0,133,59.663,133,133s-59.664,133-133,133s-133-59.663-133-133
		S150.73,90.61,224.067,90.61z"/>
	<path style="fill:#F8A805;" d="M132.287,361.122l-7.108-4.777l-16.42,28.441c-5.3,9.181-2.142,20.963,7.039,26.264l0.474,0.274
		c2.966,1.712,6.191,2.58,9.587,2.58c6.86,0,13.25-3.686,16.675-9.618l16.388-28.385l-7.655-3.779
		C144.735,368.897,138.349,365.196,132.287,361.122z"/>
	<path style="fill:#F8A805;" d="M125.859,34.23c-3.395,0-6.625,0.871-9.6,2.588l-0.463,0.267
		c-9.181,5.301-12.337,17.082-7.037,26.263l16.42,28.441l7.108-4.777c6.063-4.074,12.449-7.775,18.98-11l7.655-3.779l-16.388-28.385
		C139.109,37.915,132.719,34.23,125.859,34.23z"/>
	<path style="fill:#F8A805;" d="M76.012,296.866l-3.779-7.655l-28.386,16.39c-4.447,2.567-7.628,6.714-8.957,11.672
		c-1.33,4.96-0.649,10.139,1.917,14.584l0.278,0.481c3.425,5.933,9.815,9.617,16.676,9.617c3.398,0,6.624-0.868,9.586-2.58
		l28.441-16.42l-4.775-7.107C82.935,309.779,79.234,303.393,76.012,296.866z"/>
	<path style="fill:#F8A805;" d="M59.427,235.04c-0.239-3.626-0.36-7.318-0.36-10.974s0.121-7.348,0.36-10.974l0.563-8.526H27.225
		C16.624,204.567,8,213.192,8,223.792v0.55c0,10.601,8.625,19.225,19.225,19.225H59.99L59.427,235.04z"/>
	<path style="fill:#F8A805;" d="M53.76,106.178c-6.86,0-13.249,3.684-16.672,9.613l-0.277,0.48c-2.567,4.447-3.25,9.628-1.92,14.59
		c1.33,4.959,4.511,9.104,8.958,11.671l28.386,16.39l3.779-7.655c3.223-6.527,6.923-12.913,11-18.979l4.776-7.108l-28.441-16.42
		C60.382,107.046,57.156,106.178,53.76,106.178z"/>
	<path style="fill:#F8A805;" d="M213.094,388.706l-8.527-0.563v32.765c0,10.601,8.625,19.226,19.225,19.226h0.55
		c10.601,0,19.225-8.625,19.225-19.226v-32.765l-8.527,0.563C227.789,389.185,220.345,389.185,213.094,388.706z"/>
	<path style="fill:#F8A805;" d="M224.342,8h-0.55c-10.601,0-19.225,8.624-19.225,19.225V59.99l8.527-0.563
		c7.253-0.479,14.693-0.479,21.946,0l8.527,0.563V27.225C243.567,16.624,234.942,8,224.342,8z"/>
	<path style="fill:#F8A805;" d="M404.287,305.601l-28.386-16.39l-3.78,7.655c-3.224,6.53-6.925,12.916-11,18.979l-4.776,7.108
		l28.44,16.421c2.964,1.712,6.19,2.58,9.587,2.58c6.861,0,13.252-3.688,16.676-9.619l0.273-0.473
		c2.568-4.447,3.25-9.628,1.921-14.59C411.915,312.313,408.734,308.167,404.287,305.601z"/>
	<path style="fill:#F8A805;" d="M420.909,204.567h-32.765l0.563,8.526c0.239,3.626,0.36,7.318,0.36,10.974s-0.121,7.348-0.36,10.974
		l-0.563,8.526h32.765c10.601,0,19.225-8.624,19.225-19.225v-0.55C440.134,213.192,431.509,204.567,420.909,204.567z"/>
	<path style="fill:#F8A805;" d="M372.121,151.267l3.78,7.654l28.387-16.389c4.446-2.567,7.627-6.713,8.957-11.673
		c1.329-4.96,0.646-10.142-1.923-14.592l-0.272-0.473c-3.425-5.932-9.814-9.617-16.675-9.617c-3.396,0-6.621,0.868-9.587,2.581
		l-28.441,16.42l4.776,7.108C365.197,138.351,368.897,144.737,372.121,151.267z"/>
	<path style="fill:#F8A805;" d="M332.345,37.089l-0.482-0.278c-2.965-1.713-6.191-2.581-9.587-2.581
		c-6.86,0-13.25,3.686-16.674,9.617l-16.39,28.387l7.657,3.779c6.528,3.223,12.914,6.923,18.979,10.998l7.108,4.777l16.421-28.441
		c2.564-4.441,3.245-9.621,1.917-14.584C339.964,43.799,336.787,39.654,332.345,37.089z"/>
	<path style="fill:#F8A805;" d="M322.954,356.345l-7.108,4.777c-6.065,4.075-12.45,7.775-18.979,10.998l-7.656,3.779l16.389,28.387
		c3.424,5.933,9.814,9.618,16.675,9.618c3.396,0,6.619-0.866,9.575-2.574l0.488-0.282c9.18-5.3,12.337-17.081,7.037-26.262
		L322.954,356.345z"/>
	<g>
		<path d="M224.067,187.109c-20.158,0-36.5,16.342-36.5,36.5s16.342,36.5,36.5,36.5s36.5-16.342,36.5-36.5
			S244.225,187.109,224.067,187.109z M224.067,243.609c-11.046,0-20-8.954-20-20s8.954-20,20-20s20,8.954,20,20
			S235.112,243.609,224.067,243.609z"/>
		<path d="M420.909,196.567h-26.026c-1.887-11.809-4.97-23.218-9.118-34.102l22.523-13.004c13.022-7.518,17.483-24.169,9.965-37.19
			l-0.275-0.476c-7.518-13.021-24.169-17.483-37.19-9.965l-22.556,13.023c-7.448-9.139-15.811-17.502-24.95-24.95l13.023-22.556
			c7.518-13.022,3.056-29.672-9.965-37.19l-0.476-0.275c-13.022-7.518-29.672-3.057-37.19,9.965L285.668,62.37
			c-10.884-4.149-22.292-7.232-34.102-9.118V27.225C251.567,12.189,239.378,0,224.342,0h-0.55
			c-15.036,0-27.225,12.189-27.225,27.225v26.026c-11.809,1.887-23.218,4.97-34.102,9.118l-13.004-22.523
			c-7.518-13.022-24.169-17.483-37.19-9.965l-0.476,0.275c-13.022,7.518-17.483,24.169-9.965,37.19l13.023,22.556
			c-9.139,7.448-17.502,15.811-24.95,24.95L67.347,101.83c-13.021-7.518-29.672-3.056-37.19,9.965l-0.275,0.476
			c-7.518,13.022-3.056,29.672,9.965,37.19l22.523,13.004c-4.149,10.884-7.232,22.292-9.118,34.102H27.225
			C12.189,196.567,0,208.756,0,223.792v0.55c0,15.036,12.189,27.225,27.225,27.225h26.026c1.887,11.809,4.97,23.218,9.118,34.102
			l-22.523,13.004c-13.021,7.518-17.483,24.169-9.965,37.19l0.275,0.476c7.518,13.021,24.169,17.483,37.19,9.965l22.556-13.023
			c7.449,9.139,15.811,17.502,24.95,24.95l-13.023,22.556c-7.518,13.022-3.056,29.672,9.965,37.19l0.476,0.275
			c13.021,7.518,29.672,3.057,37.19-9.965l13.004-22.523c10.884,4.149,22.292,7.232,34.102,9.118v26.026
			c0,15.036,12.189,27.225,27.225,27.225h0.55c15.036,0,27.225-12.189,27.225-27.225v-26.026c11.809-1.887,23.218-4.97,34.102-9.118
			l13.004,22.523c7.518,13.022,24.169,17.483,37.19,9.965l0.476-0.275c13.021-7.518,17.483-24.169,9.965-37.19l-13.023-22.556
			c9.139-7.449,17.502-15.811,24.95-24.95l22.556,13.023c13.022,7.518,29.672,3.056,37.19-9.965l0.275-0.476
			c7.518-13.022,3.057-29.672-9.965-37.19l-22.523-13.004c4.149-10.884,7.232-22.292,9.118-34.102h26.026
			c15.036,0,27.225-12.189,27.225-27.225v-0.55C448.134,208.756,435.945,196.567,420.909,196.567z M51.445,235.567h-24.22
			c-6.189,0-11.225-5.035-11.225-11.225v-0.55c0-6.189,5.036-11.226,11.225-11.226h24.22c-0.251,3.804-0.378,7.634-0.378,11.5
			S51.194,231.763,51.445,235.567z M312.529,47.847c2-3.465,5.735-5.617,9.746-5.617c1.974,0,3.854,0.508,5.587,1.509l0.486,0.28
			c5.351,3.089,7.194,9.968,4.1,15.328l-12.139,21.024c-6.351-4.268-12.993-8.123-19.9-11.532L312.529,47.847z M212.567,27.225
			c0-6.189,5.036-11.225,11.225-11.225h0.55c6.189,0,11.225,5.035,11.225,11.225v24.22c-3.804-0.251-7.634-0.378-11.5-0.378
			s-7.696,0.127-11.5,0.378L212.567,27.225L212.567,27.225z M119.796,44.013l0.46-0.266c1.75-1.01,3.629-1.518,5.603-1.518
			c4.012,0,7.746,2.152,9.747,5.617l12.12,20.991c-6.907,3.41-13.549,7.266-19.9,11.533l-12.138-21.024
			C112.592,53.987,114.435,47.108,119.796,44.013z M47.847,135.605c-2.597-1.499-4.454-3.92-5.23-6.815
			c-0.776-2.896-0.377-5.921,1.122-8.518l0.277-0.48c1.998-3.461,5.733-5.613,9.744-5.613c1.974,0,3.854,0.508,5.587,1.509
			l21.025,12.139c-4.267,6.351-8.123,12.992-11.533,19.899L47.847,135.605z M59.347,332.448c-1.732,1.001-3.612,1.508-5.586,1.508
			c-4.012,0-7.747-2.152-9.748-5.617l-0.279-0.483c-1.495-2.589-1.893-5.614-1.117-8.51s2.633-5.317,5.229-6.816l20.992-12.12
			c3.41,6.907,7.266,13.549,11.533,19.9L59.347,332.448z M135.605,400.286c-2,3.465-5.735,5.618-9.747,5.618
			c-1.974,0-3.854-0.508-5.587-1.509l-0.472-0.272c-5.365-3.098-7.208-9.977-4.113-15.337l12.138-21.024
			c6.351,4.268,12.994,8.123,19.9,11.533L135.605,400.286z M235.567,420.908c0,6.189-5.036,11.226-11.225,11.226h-0.55
			c-6.189,0-11.225-5.036-11.225-11.226v-24.22c3.804,0.251,7.634,0.378,11.5,0.378s7.696-0.127,11.5-0.378L235.567,420.908
			L235.567,420.908z M328.339,404.12l-0.487,0.281c-1.723,0.995-3.603,1.503-5.576,1.503c-4.012,0-7.746-2.152-9.746-5.617
			l-12.121-20.993c6.907-3.409,13.549-7.265,19.9-11.532l12.139,21.024C335.542,394.147,333.699,401.026,328.339,404.12z
			 M224.067,381.067c-86.709,0-157-70.291-157-157s70.291-157,157-157s157,70.291,157,157S310.776,381.067,224.067,381.067z
			 M400.287,312.529c2.597,1.499,4.454,3.92,5.23,6.815c0.776,2.896,0.378,5.922-1.122,8.519l-0.271,0.468
			c-2.005,3.473-5.74,5.625-9.751,5.625c-1.974,0-3.854-0.507-5.587-1.508l-21.024-12.14c4.267-6.351,8.123-12.993,11.533-19.899
			L400.287,312.529z M379.296,147.725c-3.41-6.906-7.266-13.549-11.533-19.899l21.025-12.139c1.734-1.001,3.614-1.509,5.587-1.509
			c4.012,0,7.746,2.152,9.747,5.617l0.273,0.473c1.501,2.601,1.899,5.625,1.124,8.521c-0.776,2.896-2.633,5.316-5.229,6.815
			L379.296,147.725z M432.134,224.342c0,6.189-5.036,11.225-11.225,11.225h-24.22c0.251-3.804,0.378-7.634,0.378-11.5
			s-0.127-7.696-0.378-11.5h24.22c6.189,0,11.225,5.036,11.225,11.226V224.342z"/>
		<path d="M224.067,82.609c-77.872,0-141,63.128-141,141s63.128,141,141,141s141-63.128,141-141S301.939,82.609,224.067,82.609z
			 M216.067,296.668v51.679c-17.071-1.079-33.21-5.582-47.74-12.833l25.844-44.763C200.986,293.791,208.344,295.832,216.067,296.668
			z M232.067,296.668c7.723-0.836,15.081-2.877,21.897-5.917l25.844,44.762c-14.53,7.252-30.669,11.755-47.74,12.834v-51.679
			L232.067,296.668L232.067,296.668z M224.067,281.109c-31.756,0-57.5-25.744-57.5-57.5s25.744-57.5,57.5-57.5
			s57.5,25.744,57.5,57.5C281.567,255.366,255.823,281.109,224.067,281.109z M151.089,214.968H99.37
			c1.155-16.917,5.675-32.907,12.897-47.31l44.755,25.839C154.014,200.185,151.977,207.398,151.089,214.968z M150.934,230.968
			c0.761,7.653,2.702,14.957,5.628,21.736l-44.79,25.86c-7.113-14.508-11.497-30.595-12.484-47.596L150.934,230.968L150.934,230.968
			z M232.067,150.55V98.871c16.846,1.064,32.785,5.463,47.165,12.548l-25.855,44.783
			C246.726,153.306,239.568,151.363,232.067,150.55z M216.067,150.55c-7.501,0.812-14.659,2.756-21.31,5.652l-25.855-44.783
			c14.381-7.085,30.319-11.483,47.165-12.548L216.067,150.55L216.067,150.55z M297.199,230.968h51.646
			c-0.987,17.001-5.37,33.088-12.484,47.596l-44.79-25.86C294.497,245.925,296.438,238.621,297.199,230.968z M297.044,214.968
			c-0.887-7.57-2.924-14.784-5.933-21.471l44.755-25.839c7.222,14.403,11.742,30.393,12.898,47.31H297.044z M327.798,153.841
			l-44.786,25.857c-4.434-5.943-9.754-11.18-15.751-15.544l25.842-44.759C306.803,128.49,318.611,140.208,327.798,153.841z
			 M155.031,119.396l25.842,44.759c-5.997,4.364-11.317,9.602-15.751,15.544l-44.786-25.857
			C129.523,140.208,141.331,128.49,155.031,119.396z M119.724,292.448l44.752-25.837c4.438,6.139,9.789,11.571,15.873,16.08
			l-25.853,44.779C140.714,318.22,128.88,306.298,119.724,292.448z M293.638,327.47l-25.853-44.779
			c6.083-4.509,11.435-9.941,15.873-16.08l44.752,25.837C319.254,306.298,307.421,318.22,293.638,327.47z"/>
	</g>
</g>
<g>
</g>
<g>
</g>
<g>
</g>
<g>
</g>
<g>
</g>
<g>
</g>
<g>
</g>
<g>
</g>
<g>
</g>
<g>
</g>
<g>
</g>
<g>
</g>
<g>
</g>
<g>
</g>
<g>
</g>
</svg>
